<svg xmlns="http://www.w3.org/2000/svg" xmlns:xlink="http://www.w3.org/1999/xlink" width="256" zoomAndPan="magnify" viewBox="0 0 192 191.999996" height="256" preserveAspectRatio="xMidYMid meet" version="1.0"><defs><clipPath id="5f1f1d4637"><path d="M 6 68 L 121 68 L 121 179 L 6 179 Z M 6 68 " clip-rule="nonzero"/></clipPath><clipPath id="24b2648c72"><path d="M -16.652344 97 L 53.300781 15.707031 L 174.390625 119.90625 L 104.4375 201.199219 Z M -16.652344 97 " clip-rule="nonzero"/></clipPath><clipPath id="ab37f3b52b"><path d="M -16.652344 97 L 53.300781 15.707031 L 174.390625 119.90625 L 104.4375 201.199219 Z M -16.652344 97 " clip-rule="nonzero"/></clipPath><clipPath id="9399b53251"><path d="M 54 18 L 169 18 L 169 129 L 54 129 Z M 54 18 " clip-rule="nonzero"/></clipPath><clipPath id="6114f0e4f7"><path d="M 31.265625 46.851562 L 101.21875 -34.445312 L 222.308594 69.753906 L 152.355469 151.050781 Z M 31.265625 46.851562 " clip-rule="nonzero"/></clipPath><clipPath id="70f5900963"><path d="M 31.265625 46.851562 L 101.21875 -34.445312 L 222.308594 69.753906 L 152.355469 151.050781 Z M 31.265625 46.851562 " clip-rule="nonzero"/></clipPath></defs><g clip-path="url(#5f1f1d4637)"><g clip-path="url(#24b2648c72)"><g clip-path="url(#ab37f3b52b)"><path fill="#18cb96" d="M 114.640625 68.816406 L 19.207031 75.484375 C 0.773438 76.773438 1.773438 112.855469 23.570312 110.953125 L 82.835938 105.777344 L 85.140625 165.746094 C 85.84375 184.007812 121.371094 181.871094 120.269531 163.355469 Z M 114.640625 68.816406 " fill-opacity="1" fill-rule="nonzero"/></g></g></g><g clip-path="url(#9399b53251)"><g clip-path="url(#6114f0e4f7)"><g clip-path="url(#70f5900963)"><path fill="#18cb96" d="M 162.558594 18.667969 L 67.125 25.335938 C 48.691406 26.621094 49.691406 62.703125 71.488281 60.800781 L 130.753906 55.625 L 133.058594 115.597656 C 133.761719 133.855469 169.289062 131.722656 168.1875 113.207031 Z M 162.558594 18.667969 " fill-opacity="1" fill-rule="nonzero"/></g></g></g></svg>