<svg xmlns="http://www.w3.org/2000/svg" xmlns:xlink="http://www.w3.org/1999/xlink" width="400" zoomAndPan="magnify" viewBox="0 0 300 74.999997" height="100" preserveAspectRatio="xMidYMid meet" version="1.0"><defs><g/><clipPath id="d14e950d74"><path d="M 245 18 L 264 18 L 264 36 L 245 36 Z M 245 18 " clip-rule="nonzero"/></clipPath><clipPath id="470286af66"><path d="M 241.464844 22.765625 L 252.71875 9.6875 L 272.046875 26.320312 L 260.792969 39.394531 Z M 241.464844 22.765625 " clip-rule="nonzero"/></clipPath><clipPath id="f4362670fd"><path d="M 241.464844 22.765625 L 252.71875 9.6875 L 272.046875 26.320312 L 260.792969 39.394531 Z M 241.464844 22.765625 " clip-rule="nonzero"/></clipPath><clipPath id="2602b55aa3"><path d="M 254 11 L 274 11 L 274 29 L 254 29 Z M 254 11 " clip-rule="nonzero"/></clipPath><clipPath id="50aec5797a"><path d="M 251.042969 15.535156 L 262.292969 2.460938 L 281.625 19.09375 L 270.371094 32.167969 Z M 251.042969 15.535156 " clip-rule="nonzero"/></clipPath><clipPath id="bc053cadd0"><path d="M 251.042969 15.535156 L 262.292969 2.460938 L 281.625 19.09375 L 270.371094 32.167969 Z M 251.042969 15.535156 " clip-rule="nonzero"/></clipPath></defs><g clip-path="url(#d14e950d74)"><g clip-path="url(#470286af66)"><g clip-path="url(#f4362670fd)"><path fill="#18cb96" d="M 262.574219 18.234375 L 247.230469 19.304688 C 244.269531 19.511719 244.429688 25.3125 247.933594 25.007812 L 257.460938 24.175781 L 257.832031 33.816406 C 257.945312 36.753906 263.65625 36.410156 263.480469 33.433594 Z M 262.574219 18.234375 " fill-opacity="1" fill-rule="nonzero"/></g></g></g><g clip-path="url(#2602b55aa3)"><g clip-path="url(#50aec5797a)"><g clip-path="url(#bc053cadd0)"><path fill="#18cb96" d="M 272.152344 11.003906 L 256.808594 12.078125 C 253.84375 12.285156 254.007812 18.085938 257.511719 17.78125 L 267.039062 16.949219 L 267.410156 26.589844 C 267.523438 29.523438 273.234375 29.179688 273.058594 26.203125 Z M 272.152344 11.003906 " fill-opacity="1" fill-rule="nonzero"/></g></g></g><g fill="#373643" fill-opacity="1"><g transform="translate(23.730411, 60.896137)"><g><path d="M 22.296875 -41.203125 C 25.429688 -41.203125 28.335938 -40.734375 31.015625 -39.796875 C 33.691406 -38.867188 36.070312 -37.238281 38.15625 -34.90625 C 39 -33.925781 39.367188 -32.988281 39.265625 -32.09375 C 39.160156 -31.207031 38.753906 -30.488281 38.046875 -29.9375 C 37.347656 -29.382812 36.519531 -29.128906 35.5625 -29.171875 C 34.613281 -29.210938 33.710938 -29.675781 32.859375 -30.5625 C 31.285156 -32.3125 29.617188 -33.4375 27.859375 -33.9375 C 26.097656 -34.445312 24.222656 -34.703125 22.234375 -34.703125 C 19.554688 -34.703125 17.207031 -34.117188 15.1875 -32.953125 C 13.175781 -31.785156 11.601562 -30.160156 10.46875 -28.078125 C 9.34375 -26.003906 8.78125 -23.566406 8.78125 -20.765625 C 8.78125 -17.785156 9.351562 -15.171875 10.5 -12.921875 C 11.65625 -10.671875 13.257812 -8.929688 15.3125 -7.703125 C 17.375 -6.472656 19.785156 -5.859375 22.546875 -5.859375 C 24.535156 -5.859375 26.53125 -6.367188 28.53125 -7.390625 C 30.53125 -8.410156 32.125 -9.640625 33.3125 -11.078125 C 34.15625 -12.097656 35.078125 -12.679688 36.078125 -12.828125 C 37.078125 -12.984375 37.945312 -12.816406 38.6875 -12.328125 C 39.4375 -11.835938 39.882812 -11.144531 40.03125 -10.25 C 40.175781 -9.363281 39.867188 -8.367188 39.109375 -7.265625 C 37.960938 -5.648438 36.472656 -4.25 34.640625 -3.0625 C 32.816406 -1.875 30.84375 -0.957031 28.71875 -0.3125 C 26.59375 0.320312 24.492188 0.640625 22.421875 0.640625 C 18.210938 0.640625 14.535156 -0.25 11.390625 -2.03125 C 8.253906 -3.820312 5.816406 -6.316406 4.078125 -9.515625 C 2.335938 -12.722656 1.46875 -16.472656 1.46875 -20.765625 C 1.46875 -24.878906 2.378906 -28.460938 4.203125 -31.515625 C 6.023438 -34.578125 8.519531 -36.957031 11.6875 -38.65625 C 14.851562 -40.351562 18.390625 -41.203125 22.296875 -41.203125 Z M 22.296875 -41.203125 "/></g></g></g><g fill="#18cb96" fill-opacity="1"><g transform="translate(63.800174, 60.896137)"><g><path d="M 18.21875 -33.046875 C 21.613281 -33.046875 24.582031 -32.332031 27.125 -30.90625 C 29.675781 -29.488281 31.648438 -27.503906 33.046875 -24.953125 C 34.453125 -22.410156 35.15625 -19.441406 35.15625 -16.046875 C 35.113281 -12.734375 34.378906 -9.820312 32.953125 -7.3125 C 31.535156 -4.8125 29.5625 -2.859375 27.03125 -1.453125 C 24.507812 -0.0546875 21.570312 0.640625 18.21875 0.640625 C 14.90625 0.640625 11.972656 -0.0546875 9.421875 -1.453125 C 6.878906 -2.859375 4.894531 -4.8125 3.46875 -7.3125 C 2.050781 -9.820312 1.320312 -12.734375 1.28125 -16.046875 C 1.28125 -19.441406 1.988281 -22.410156 3.40625 -24.953125 C 4.832031 -27.503906 6.816406 -29.488281 9.359375 -30.90625 C 11.910156 -32.332031 14.863281 -33.046875 18.21875 -33.046875 Z M 18.21875 -5.734375 C 21.101562 -5.734375 23.40625 -6.6875 25.125 -8.59375 C 26.84375 -10.507812 27.703125 -12.992188 27.703125 -16.046875 C 27.703125 -19.191406 26.84375 -21.75 25.125 -23.71875 C 23.40625 -25.695312 21.101562 -26.6875 18.21875 -26.6875 C 15.375 -26.6875 13.078125 -25.695312 11.328125 -23.71875 C 9.585938 -21.75 8.71875 -19.191406 8.71875 -16.046875 C 8.71875 -12.992188 9.585938 -10.507812 11.328125 -8.59375 C 13.078125 -6.6875 15.375 -5.734375 18.21875 -5.734375 Z M 18.21875 -5.734375 "/></g></g></g><g fill="#18cb96" fill-opacity="1"><g transform="translate(99.145728, 60.896137)"><g><path d="M 18.21875 -33.046875 C 21.613281 -33.046875 24.582031 -32.332031 27.125 -30.90625 C 29.675781 -29.488281 31.648438 -27.503906 33.046875 -24.953125 C 34.453125 -22.410156 35.15625 -19.441406 35.15625 -16.046875 C 35.113281 -12.734375 34.378906 -9.820312 32.953125 -7.3125 C 31.535156 -4.8125 29.5625 -2.859375 27.03125 -1.453125 C 24.507812 -0.0546875 21.570312 0.640625 18.21875 0.640625 C 14.90625 0.640625 11.972656 -0.0546875 9.421875 -1.453125 C 6.878906 -2.859375 4.894531 -4.8125 3.46875 -7.3125 C 2.050781 -9.820312 1.320312 -12.734375 1.28125 -16.046875 C 1.28125 -19.441406 1.988281 -22.410156 3.40625 -24.953125 C 4.832031 -27.503906 6.816406 -29.488281 9.359375 -30.90625 C 11.910156 -32.332031 14.863281 -33.046875 18.21875 -33.046875 Z M 18.21875 -5.734375 C 21.101562 -5.734375 23.40625 -6.6875 25.125 -8.59375 C 26.84375 -10.507812 27.703125 -12.992188 27.703125 -16.046875 C 27.703125 -19.191406 26.84375 -21.75 25.125 -23.71875 C 23.40625 -25.695312 21.101562 -26.6875 18.21875 -26.6875 C 15.375 -26.6875 13.078125 -25.695312 11.328125 -23.71875 C 9.585938 -21.75 8.71875 -19.191406 8.71875 -16.046875 C 8.71875 -12.992188 9.585938 -10.507812 11.328125 -8.59375 C 13.078125 -6.6875 15.375 -5.734375 18.21875 -5.734375 Z M 18.21875 -5.734375 "/></g></g></g><g fill="#373643" fill-opacity="1"><g transform="translate(134.495975, 60.896137)"><g><path d="M 17.203125 -32.421875 C 18.347656 -32.421875 19.257812 -32.175781 19.9375 -31.6875 C 20.613281 -31.195312 20.953125 -30.398438 20.953125 -29.296875 C 20.953125 -28.273438 20.613281 -27.46875 19.9375 -26.875 C 19.257812 -26.28125 18.347656 -25.984375 17.203125 -25.984375 C 14.523438 -25.984375 12.644531 -25.023438 11.5625 -23.109375 C 10.476562 -21.203125 9.9375 -18.613281 9.9375 -15.34375 L 9.9375 -3.25 C 9.9375 -2.3125 9.59375 -1.535156 8.90625 -0.921875 C 8.226562 -0.304688 7.40625 0 6.4375 0 C 5.332031 0 4.4375 -0.304688 3.75 -0.921875 C 3.070312 -1.535156 2.734375 -2.3125 2.734375 -3.25 L 2.734375 -29.171875 C 2.734375 -30.191406 3.125 -30.988281 3.90625 -31.5625 C 4.695312 -32.132812 5.539062 -32.421875 6.4375 -32.421875 C 7.320312 -32.421875 8.125 -32.144531 8.84375 -31.59375 C 9.570312 -31.039062 9.9375 -30.234375 9.9375 -29.171875 L 9.9375 -28.78125 C 10.875 -30.019531 11.957031 -30.9375 13.1875 -31.53125 C 14.414062 -32.125 15.753906 -32.421875 17.203125 -32.421875 Z M 17.203125 -32.421875 "/></g></g></g><g fill="#373643" fill-opacity="1"><g transform="translate(153.537923, 60.896137)"><g><path d="M 29.671875 -41.203125 C 30.566406 -41.203125 31.40625 -40.945312 32.1875 -40.4375 C 32.976562 -39.925781 33.375 -39.117188 33.375 -38.015625 L 33.375 -3.25 C 33.375 -1.082031 32.140625 0 29.671875 0 C 27.460938 0 26.316406 -1.019531 26.234375 -3.0625 C 24.878906 -1.875 23.351562 -0.96875 21.65625 -0.34375 C 19.957031 0.269531 18.34375 0.578125 16.8125 0.578125 C 13.625 0.578125 10.875 -0.140625 8.5625 -1.578125 C 6.25 -3.023438 4.476562 -5.046875 3.25 -7.640625 C 2.019531 -10.234375 1.40625 -13.207031 1.40625 -16.5625 C 1.40625 -19.789062 2.0625 -22.632812 3.375 -25.09375 C 4.6875 -27.550781 6.519531 -29.488281 8.875 -30.90625 C 11.238281 -32.332031 13.96875 -33.046875 17.0625 -33.046875 C 18.46875 -33.046875 19.976562 -32.769531 21.59375 -32.21875 C 23.207031 -31.664062 24.710938 -30.835938 26.109375 -29.734375 L 26.109375 -38.015625 C 26.109375 -39.117188 26.476562 -39.925781 27.21875 -40.4375 C 27.96875 -40.945312 28.785156 -41.203125 29.671875 -41.203125 Z M 17 -5.859375 C 19.125 -5.859375 21.046875 -6.332031 22.765625 -7.28125 C 24.484375 -8.238281 25.640625 -9.632812 26.234375 -11.46875 L 26.171875 -21.265625 C 25.453125 -23.015625 24.273438 -24.34375 22.640625 -25.25 C 21.003906 -26.164062 19.316406 -26.625 17.578125 -26.625 C 14.898438 -26.625 12.742188 -25.65625 11.109375 -23.71875 C 9.472656 -21.789062 8.65625 -19.382812 8.65625 -16.5 C 8.65625 -13.394531 9.421875 -10.84375 10.953125 -8.84375 C 12.484375 -6.851562 14.5 -5.859375 17 -5.859375 Z M 17 -5.859375 "/></g></g></g><g fill="#373643" fill-opacity="1"><g transform="translate(190.411953, 60.896137)"><g><path d="M 9.546875 -37.1875 C 9.546875 -36.125 9.15625 -35.328125 8.375 -34.796875 C 7.59375 -34.273438 6.753906 -34.015625 5.859375 -34.015625 C 4.921875 -34.015625 4.070312 -34.273438 3.3125 -34.796875 C 2.550781 -35.328125 2.171875 -36.125 2.171875 -37.1875 L 2.171875 -38.015625 C 2.171875 -39.117188 2.550781 -39.925781 3.3125 -40.4375 C 4.070312 -40.945312 4.921875 -41.203125 5.859375 -41.203125 C 6.753906 -41.203125 7.59375 -40.945312 8.375 -40.4375 C 9.15625 -39.925781 9.546875 -39.117188 9.546875 -38.015625 Z M 2.234375 -29.296875 C 2.234375 -30.316406 2.625 -31.09375 3.40625 -31.625 C 4.1875 -32.15625 5.003906 -32.421875 5.859375 -32.421875 C 6.753906 -32.421875 7.582031 -32.15625 8.34375 -31.625 C 9.101562 -31.09375 9.484375 -30.335938 9.484375 -29.359375 L 9.484375 -3.125 C 9.484375 -2.0625 9.101562 -1.273438 8.34375 -0.765625 C 7.582031 -0.253906 6.753906 0 5.859375 0 C 5.003906 0 4.1875 -0.253906 3.40625 -0.765625 C 2.625 -1.273438 2.234375 -2.0625 2.234375 -3.125 Z M 2.234375 -29.296875 "/></g></g></g><g fill="#373643" fill-opacity="1"><g transform="translate(200.856299, 60.896137)"><g><path d="M 14.640625 -35.921875 C 13.878906 -35.921875 13.179688 -35.664062 12.546875 -35.15625 C 11.910156 -34.644531 11.59375 -33.859375 11.59375 -32.796875 L 11.59375 -31.71875 L 15.796875 -31.71875 C 16.859375 -31.71875 17.628906 -31.398438 18.109375 -30.765625 C 18.597656 -30.128906 18.84375 -29.445312 18.84375 -28.71875 C 18.84375 -27.957031 18.597656 -27.269531 18.109375 -26.65625 C 17.628906 -26.039062 16.859375 -25.734375 15.796875 -25.734375 L 11.59375 -25.734375 L 11.59375 -3.1875 C 11.59375 -2.125 11.207031 -1.328125 10.4375 -0.796875 C 9.675781 -0.265625 8.851562 0 7.96875 0 C 7.03125 0 6.1875 -0.265625 5.4375 -0.796875 C 4.695312 -1.328125 4.328125 -2.125 4.328125 -3.1875 L 4.328125 -25.734375 L 2.671875 -25.734375 C 1.609375 -25.734375 0.800781 -26.039062 0.25 -26.65625 C -0.300781 -27.269531 -0.578125 -27.957031 -0.578125 -28.71875 C -0.578125 -29.445312 -0.300781 -30.128906 0.25 -30.765625 C 0.800781 -31.398438 1.609375 -31.71875 2.671875 -31.71875 L 4.328125 -31.71875 L 4.328125 -32.796875 C 4.328125 -34.796875 4.804688 -36.484375 5.765625 -37.859375 C 6.722656 -39.242188 7.972656 -40.296875 9.515625 -41.015625 C 11.066406 -41.734375 12.691406 -42.09375 14.390625 -42.09375 C 15.617188 -42.09375 16.828125 -41.921875 18.015625 -41.578125 C 19.210938 -41.242188 20.296875 -40.65625 21.265625 -39.8125 C 22.078125 -39.082031 22.472656 -38.289062 22.453125 -37.4375 C 22.429688 -36.59375 22.132812 -35.851562 21.5625 -35.21875 C 20.988281 -34.582031 20.273438 -34.195312 19.421875 -34.0625 C 18.578125 -33.9375 17.726562 -34.257812 16.875 -35.03125 C 16.28125 -35.625 15.535156 -35.921875 14.640625 -35.921875 Z M 14.640625 -35.921875 "/></g></g></g><g fill="#373643" fill-opacity="1"><g transform="translate(220.726168, 60.896137)"><g><path d="M 29.671875 -32.421875 C 30.773438 -32.421875 31.71875 -31.941406 32.5 -30.984375 C 33.289062 -30.023438 33.453125 -28.910156 32.984375 -27.640625 L 14.390625 8.859375 C 13.960938 9.660156 13.421875 10.296875 12.765625 10.765625 C 12.109375 11.234375 11.421875 11.46875 10.703125 11.46875 C 9.972656 11.46875 9.300781 11.222656 8.6875 10.734375 C 8.070312 10.242188 7.644531 9.613281 7.40625 8.84375 C 7.175781 8.082031 7.273438 7.28125 7.703125 6.4375 L 12.546875 -3.125 L 0 -27.390625 C -0.382812 -28.234375 -0.4375 -29.035156 -0.15625 -29.796875 C 0.113281 -30.566406 0.566406 -31.195312 1.203125 -31.6875 C 1.847656 -32.175781 2.550781 -32.421875 3.3125 -32.421875 C 3.988281 -32.421875 4.644531 -32.207031 5.28125 -31.78125 C 5.914062 -31.351562 6.382812 -30.800781 6.6875 -30.125 L 16.5 -10.953125 L 26.296875 -30.1875 C 26.597656 -30.863281 27.046875 -31.40625 27.640625 -31.8125 C 28.234375 -32.21875 28.910156 -32.421875 29.671875 -32.421875 Z M 29.671875 -32.421875 "/></g></g></g></svg>